<?xml version="1.0" encoding="UTF-8" standalone="no"?><!DOCTYPE svg PUBLIC "-//W3C//DTD SVG 1.1//EN" "http://www.w3.org/Graphics/SVG/1.1/DTD/svg11.dtd"><svg width="100%" height="100%" viewBox="0 0 354 105" version="1.1" xmlns="http://www.w3.org/2000/svg" xmlns:xlink="http://www.w3.org/1999/xlink" xml:space="preserve" xmlns:serif="http://www.serif.com/" style="fill-rule:evenodd;clip-rule:evenodd;stroke-linejoin:round;stroke-miterlimit:2;"><g><path d="M104.472,0l-104.472,0l0,104.472l104.472,-0l-0,-104.472Zm-47.072,30.023l0,44.426l31.422,0l0,-8.213l-21.653,-0l0,-36.213l-9.769,-0Zm-41.751,-0l0,44.426l19.165,0c3.401,0 6.357,-0.57 8.866,-1.711c2.51,-1.141 4.605,-2.707 6.285,-4.698c1.68,-1.991 2.935,-4.355 3.764,-7.093c0.83,-2.738 1.245,-5.725 1.245,-8.96c-0,-3.692 -0.509,-6.907 -1.525,-9.644c-1.016,-2.738 -2.427,-5.02 -4.231,-6.845c-1.804,-1.825 -3.941,-3.194 -6.409,-4.107c-2.468,-0.912 -5.133,-1.368 -7.995,-1.368l-19.165,-0Zm9.769,36.213l0,-28l6.969,-0c2.406,-0 4.428,0.342 6.067,1.027c1.638,0.684 2.955,1.669 3.951,2.955c0.995,1.286 1.711,2.831 2.146,4.636c0.436,1.804 0.654,3.826 0.654,6.066c-0,2.448 -0.311,4.522 -0.934,6.222c-0.622,1.701 -1.451,3.08 -2.488,4.138c-1.038,1.058 -2.22,1.815 -3.547,2.271c-1.328,0.457 -2.696,0.685 -4.107,0.685l-8.711,-0Z" style="fill:#1f70b8;"/><g transform="matrix(0.0605599,0,0,0.0605599,64.368,-34.5509)"><g transform="matrix(682.555,0,0,682.555,1034.34,1320.79)"><path d="M0.226,-0.132l0,-0.45l0.112,0c0.039,0 0.071,0.006 0.097,0.017c0.027,0.011 0.048,0.026 0.064,0.047c0.016,0.021 0.027,0.046 0.034,0.075c0.008,0.028 0.011,0.061 0.011,0.097c0,0.039 -0.005,0.073 -0.015,0.1c-0.01,0.027 -0.023,0.049 -0.04,0.066c-0.017,0.017 -0.036,0.03 -0.057,0.037c-0.021,0.007 -0.043,0.011 -0.066,0.011l-0.14,-0Zm-0.157,-0.582l-0,0.714l0.308,-0c0.055,-0 0.102,-0.009 0.142,-0.028c0.041,-0.018 0.075,-0.043 0.102,-0.075c0.027,-0.032 0.047,-0.07 0.06,-0.114c0.013,-0.044 0.02,-0.092 0.02,-0.144c0,-0.059 -0.008,-0.111 -0.025,-0.155c-0.016,-0.044 -0.038,-0.081 -0.068,-0.11c-0.029,-0.029 -0.063,-0.051 -0.103,-0.066c-0.039,-0.015 -0.082,-0.022 -0.128,-0.022l-0.308,0Z" style="fill-rule:nonzero;"/></g><g transform="matrix(682.555,0,0,682.555,1519.64,1320.79)"><path d="M0.2,-0.597l0,-0.117l-0.142,0l0,0.117l0.142,0Zm-0.142,0.08l0,0.517l0.142,-0l0,-0.517l-0.142,0Z" style="fill-rule:nonzero;"/></g><g transform="matrix(682.555,0,0,682.555,1675.26,1320.79)"><path d="M0.295,-0.122c-0.022,0 -0.04,-0.005 -0.055,-0.014c-0.015,-0.009 -0.026,-0.021 -0.035,-0.036c-0.009,-0.015 -0.016,-0.031 -0.019,-0.049c-0.004,-0.019 -0.006,-0.037 -0.006,-0.056c0,-0.019 0.002,-0.038 0.007,-0.055c0.004,-0.018 0.011,-0.034 0.021,-0.047c0.009,-0.014 0.021,-0.025 0.036,-0.033c0.014,-0.008 0.031,-0.012 0.051,-0.012c0.023,0 0.043,0.004 0.058,0.013c0.015,0.009 0.028,0.02 0.037,0.035c0.009,0.015 0.016,0.031 0.02,0.05c0.004,0.02 0.006,0.04 0.006,0.061c0,0.019 -0.002,0.037 -0.007,0.054c-0.005,0.017 -0.013,0.032 -0.023,0.045c-0.01,0.013 -0.023,0.024 -0.038,0.032c-0.015,0.008 -0.033,0.012 -0.053,0.012Zm0.256,0.089l0,-0.484l-0.135,0l0,0.069l-0.002,0c-0.017,-0.03 -0.039,-0.051 -0.064,-0.064c-0.026,-0.013 -0.056,-0.019 -0.09,-0.019c-0.036,0 -0.068,0.007 -0.095,0.021c-0.028,0.014 -0.051,0.033 -0.07,0.056c-0.019,0.024 -0.033,0.051 -0.042,0.083c-0.01,0.03 -0.015,0.063 -0.015,0.096c0,0.035 0.004,0.069 0.013,0.101c0.008,0.031 0.021,0.059 0.039,0.083c0.018,0.023 0.041,0.042 0.069,0.056c0.028,0.013 0.061,0.02 0.1,0.02c0.031,0 0.061,-0.006 0.09,-0.019c0.028,-0.013 0.05,-0.034 0.065,-0.061l0.002,0l0,0.068c0.001,0.037 -0.008,0.067 -0.026,0.091c-0.019,0.024 -0.048,0.036 -0.088,0.036c-0.025,0 -0.048,-0.005 -0.067,-0.016c-0.019,-0.01 -0.032,-0.028 -0.039,-0.055l-0.141,-0c0.002,0.029 0.01,0.055 0.025,0.075c0.014,0.021 0.032,0.039 0.054,0.052c0.021,0.013 0.045,0.023 0.072,0.029c0.026,0.007 0.052,0.01 0.077,0.01c0.059,-0 0.107,-0.008 0.142,-0.024c0.035,-0.016 0.062,-0.036 0.081,-0.059c0.019,-0.023 0.031,-0.047 0.037,-0.074c0.005,-0.027 0.008,-0.05 0.008,-0.071Z" style="fill-rule:nonzero;"/></g><g transform="matrix(682.555,0,0,682.555,2071.83,1320.79)"><path d="M0.2,-0.597l0,-0.117l-0.142,0l0,0.117l0.142,0Zm-0.142,0.08l0,0.517l0.142,-0l0,-0.517l-0.142,0Z" style="fill-rule:nonzero;"/></g><g transform="matrix(682.555,0,0,682.555,2241.1,1320.79)"><path d="M0.234,-0.517l0,-0.155l-0.142,0l0,0.155l-0.086,0l0,0.095l0.086,0l0,0.305c0,0.026 0.004,0.047 0.013,0.063c0.009,0.016 0.021,0.028 0.036,0.037c0.014,0.009 0.032,0.015 0.051,0.018c0.02,0.003 0.041,0.004 0.063,0.004c0.014,0 0.028,-0 0.043,-0.001c0.015,-0.001 0.028,-0.002 0.04,-0.004l0,-0.11c-0.007,0.001 -0.014,0.002 -0.021,0.003c-0.007,0.001 -0.015,0.001 -0.023,0.001c-0.024,0 -0.04,-0.004 -0.048,-0.012c-0.008,-0.008 -0.012,-0.024 -0.012,-0.048l0,-0.256l0.104,0l0,-0.095l-0.104,0Z" style="fill-rule:nonzero;"/></g><g transform="matrix(682.555,0,0,682.555,2481.36,1320.79)"><path d="M0.048,-0.358c0.002,-0.033 0.01,-0.061 0.025,-0.083c0.015,-0.022 0.033,-0.04 0.056,-0.053c0.023,-0.013 0.048,-0.023 0.077,-0.028c0.028,-0.006 0.056,-0.009 0.085,-0.009c0.026,0 0.052,0.002 0.079,0.006c0.027,0.003 0.051,0.01 0.073,0.021c0.022,0.011 0.04,0.026 0.054,0.044c0.014,0.02 0.021,0.045 0.021,0.076l0,0.269c0,0.023 0.001,0.046 0.004,0.067c0.003,0.021 0.007,0.037 0.014,0.048l-0.144,-0c-0.003,-0.008 -0.005,-0.016 -0.007,-0.025c-0.001,-0.008 -0.002,-0.016 -0.003,-0.025c-0.023,0.023 -0.049,0.04 -0.08,0.049c-0.031,0.009 -0.062,0.014 -0.094,0.014c-0.025,-0 -0.048,-0.003 -0.069,-0.009c-0.021,-0.006 -0.04,-0.015 -0.056,-0.028c-0.016,-0.013 -0.028,-0.029 -0.037,-0.048c-0.009,-0.019 -0.014,-0.042 -0.014,-0.069c0,-0.029 0.005,-0.054 0.016,-0.073c0.01,-0.019 0.023,-0.034 0.04,-0.045c0.016,-0.011 0.035,-0.02 0.056,-0.026c0.021,-0.005 0.042,-0.01 0.063,-0.013c0.021,-0.003 0.042,-0.006 0.063,-0.008c0.021,-0.002 0.039,-0.005 0.055,-0.009c0.016,-0.004 0.029,-0.01 0.038,-0.018c0.009,-0.007 0.014,-0.018 0.013,-0.033c0,-0.015 -0.003,-0.028 -0.008,-0.037c-0.005,-0.009 -0.011,-0.016 -0.019,-0.021c-0.009,-0.004 -0.018,-0.008 -0.029,-0.01c-0.011,-0.001 -0.023,-0.002 -0.036,-0.002c-0.028,0 -0.05,0.006 -0.066,0.018c-0.016,0.012 -0.025,0.032 -0.028,0.06l-0.142,0Zm0.328,0.105c-0.006,0.005 -0.013,0.01 -0.022,0.013c-0.009,0.002 -0.019,0.005 -0.029,0.007c-0.011,0.002 -0.022,0.004 -0.033,0.005c-0.011,0.001 -0.023,0.003 -0.034,0.005c-0.011,0.002 -0.021,0.005 -0.031,0.008c-0.011,0.003 -0.02,0.008 -0.027,0.013c-0.008,0.006 -0.014,0.013 -0.019,0.022c-0.005,0.009 -0.007,0.02 -0.007,0.033c0,0.013 0.002,0.023 0.007,0.032c0.005,0.009 0.011,0.015 0.019,0.02c0.008,0.005 0.017,0.009 0.028,0.011c0.011,0.002 0.022,0.003 0.033,0.003c0.028,-0 0.05,-0.005 0.065,-0.014c0.015,-0.009 0.027,-0.021 0.034,-0.034c0.007,-0.013 0.012,-0.026 0.014,-0.039c0.001,-0.013 0.002,-0.024 0.002,-0.032l0,-0.053Z" style="fill-rule:nonzero;"/></g><g transform="matrix(682.555,0,0,682.555,2866.32,1320.79)"><rect x="0.058" y="-0.714" width="0.142" height="0.714" style="fill-rule:nonzero;"/></g><g transform="matrix(682.555,0,0,682.555,3232.17,1320.79)"><path d="M0.069,-0.714l0,0.714l0.505,-0l0,-0.132l-0.348,0l-0,-0.582l-0.157,0Z" style="fill-rule:nonzero;"/></g><g transform="matrix(682.555,0,0,682.555,3636.92,1320.79)"><path d="M0.048,-0.358c0.002,-0.033 0.01,-0.061 0.025,-0.083c0.015,-0.022 0.033,-0.04 0.056,-0.053c0.023,-0.013 0.048,-0.023 0.077,-0.028c0.028,-0.006 0.056,-0.009 0.085,-0.009c0.026,0 0.052,0.002 0.079,0.006c0.027,0.003 0.051,0.01 0.073,0.021c0.022,0.011 0.04,0.026 0.054,0.044c0.014,0.02 0.021,0.045 0.021,0.076l0,0.269c0,0.023 0.001,0.046 0.004,0.067c0.003,0.021 0.007,0.037 0.014,0.048l-0.144,-0c-0.003,-0.008 -0.005,-0.016 -0.007,-0.025c-0.001,-0.008 -0.002,-0.016 -0.003,-0.025c-0.023,0.023 -0.049,0.04 -0.08,0.049c-0.031,0.009 -0.062,0.014 -0.094,0.014c-0.025,-0 -0.048,-0.003 -0.069,-0.009c-0.021,-0.006 -0.04,-0.015 -0.056,-0.028c-0.016,-0.013 -0.028,-0.029 -0.037,-0.048c-0.009,-0.019 -0.014,-0.042 -0.014,-0.069c0,-0.029 0.005,-0.054 0.016,-0.073c0.01,-0.019 0.023,-0.034 0.04,-0.045c0.016,-0.011 0.035,-0.02 0.056,-0.026c0.021,-0.005 0.042,-0.01 0.063,-0.013c0.021,-0.003 0.042,-0.006 0.063,-0.008c0.021,-0.002 0.039,-0.005 0.055,-0.009c0.016,-0.004 0.029,-0.01 0.038,-0.018c0.009,-0.007 0.014,-0.018 0.013,-0.033c0,-0.015 -0.003,-0.028 -0.008,-0.037c-0.005,-0.009 -0.011,-0.016 -0.019,-0.021c-0.009,-0.004 -0.018,-0.008 -0.029,-0.01c-0.011,-0.001 -0.023,-0.002 -0.036,-0.002c-0.028,0 -0.05,0.006 -0.066,0.018c-0.016,0.012 -0.025,0.032 -0.028,0.06l-0.142,0Zm0.328,0.105c-0.006,0.005 -0.013,0.01 -0.022,0.013c-0.009,0.002 -0.019,0.005 -0.029,0.007c-0.011,0.002 -0.022,0.004 -0.033,0.005c-0.011,0.001 -0.023,0.003 -0.034,0.005c-0.011,0.002 -0.021,0.005 -0.031,0.008c-0.011,0.003 -0.02,0.008 -0.027,0.013c-0.008,0.006 -0.014,0.013 -0.019,0.022c-0.005,0.009 -0.007,0.02 -0.007,0.033c0,0.013 0.002,0.023 0.007,0.032c0.005,0.009 0.011,0.015 0.019,0.02c0.008,0.005 0.017,0.009 0.028,0.011c0.011,0.002 0.022,0.003 0.033,0.003c0.028,-0 0.05,-0.005 0.065,-0.014c0.015,-0.009 0.027,-0.021 0.034,-0.034c0.007,-0.013 0.012,-0.026 0.014,-0.039c0.001,-0.013 0.002,-0.024 0.002,-0.032l0,-0.053Z" style="fill-rule:nonzero;"/></g><g transform="matrix(682.555,0,0,682.555,4021.89,1320.79)"><path d="M0.054,-0.517l0,0.517l0.142,-0l0,-0.271c0,-0.053 0.009,-0.09 0.026,-0.113c0.017,-0.023 0.045,-0.035 0.084,-0.035c0.034,0 0.058,0.011 0.071,0.032c0.013,0.021 0.02,0.052 0.02,0.095l0,0.292l0.142,0l0,-0.318c0,-0.032 -0.003,-0.061 -0.009,-0.087c-0.005,-0.027 -0.015,-0.049 -0.029,-0.067c-0.014,-0.019 -0.033,-0.033 -0.057,-0.043c-0.025,-0.011 -0.056,-0.016 -0.094,-0.016c-0.03,0 -0.059,0.007 -0.088,0.021c-0.029,0.013 -0.052,0.035 -0.07,0.065l-0.003,0l0,-0.072l-0.135,0Z" style="fill-rule:nonzero;"/></g><g transform="matrix(682.555,0,0,682.555,4392.51,1320.79)"><path d="M0.421,-0.26c0,0.021 -0.002,0.042 -0.006,0.062c-0.004,0.02 -0.011,0.038 -0.02,0.054c-0.009,0.015 -0.022,0.028 -0.037,0.037c-0.016,0.009 -0.036,0.014 -0.059,0.014c-0.022,0 -0.041,-0.005 -0.056,-0.014c-0.016,-0.01 -0.029,-0.023 -0.039,-0.038c-0.011,-0.016 -0.018,-0.034 -0.023,-0.054c-0.005,-0.02 -0.007,-0.04 -0.007,-0.06c0,-0.021 0.002,-0.042 0.007,-0.062c0.004,-0.019 0.011,-0.037 0.021,-0.052c0.009,-0.015 0.022,-0.028 0.038,-0.037c0.016,-0.009 0.036,-0.014 0.059,-0.014c0.023,0 0.043,0.005 0.058,0.014c0.015,0.009 0.028,0.021 0.038,0.036c0.009,0.015 0.016,0.033 0.02,0.052c0.004,0.02 0.006,0.041 0.006,0.062Zm0.002,0.194l0,0.066l0.135,-0l0,-0.714l-0.142,0l0,0.26l-0.002,-0c-0.016,-0.025 -0.038,-0.045 -0.066,-0.058c-0.027,-0.013 -0.056,-0.019 -0.087,-0.019c-0.038,0 -0.071,0.008 -0.1,0.022c-0.029,0.015 -0.053,0.035 -0.072,0.06c-0.019,0.025 -0.033,0.053 -0.042,0.086c-0.01,0.032 -0.015,0.065 -0.015,0.1c0,0.036 0.005,0.071 0.015,0.104c0.009,0.033 0.024,0.063 0.043,0.089c0.019,0.025 0.043,0.046 0.072,0.061c0.029,0.015 0.063,0.022 0.102,0.022c0.034,0 0.065,-0.006 0.091,-0.018c0.028,-0.013 0.049,-0.033 0.066,-0.061l0.002,0Z" style="fill-rule:nonzero;"/></g><g transform="matrix(682.555,0,0,682.555,1034.34,2023.14)"><path d="M0.076,-0.714l0.315,0c0.051,0 0.092,0.007 0.124,0.022c0.032,0.015 0.057,0.033 0.074,0.055c0.017,0.022 0.029,0.046 0.036,0.072c0.006,0.026 0.009,0.05 0.009,0.072c0,0.022 -0.003,0.046 -0.009,0.071c-0.007,0.026 -0.019,0.05 -0.036,0.072c-0.017,0.022 -0.042,0.04 -0.074,0.054c-0.032,0.015 -0.073,0.022 -0.124,0.022l-0.19,-0l0,0.274l-0.125,-0l-0,-0.714Zm0.125,0.338l0.183,-0c0.014,-0 0.028,-0.002 0.043,-0.006c0.015,-0.004 0.028,-0.011 0.041,-0.02c0.012,-0.009 0.022,-0.021 0.03,-0.036c0.007,-0.015 0.011,-0.033 0.011,-0.056c0,-0.023 -0.003,-0.043 -0.01,-0.058c-0.007,-0.015 -0.016,-0.028 -0.027,-0.037c-0.011,-0.009 -0.024,-0.015 -0.039,-0.018c-0.015,-0.003 -0.03,-0.005 -0.047,-0.005l-0.185,-0l0,0.236Z" style="fill-rule:nonzero;"/></g><g transform="matrix(682.555,0,0,682.555,1489.61,2023.14)"><path d="M0.514,-0l-0.112,-0l0,-0.072l-0.002,0c-0.014,0.026 -0.035,0.047 -0.063,0.063c-0.027,0.015 -0.055,0.023 -0.084,0.023c-0.068,0 -0.117,-0.017 -0.148,-0.05c-0.03,-0.034 -0.045,-0.085 -0.045,-0.153l-0,-0.328l0.114,0l0,0.317c0,0.045 0.009,0.077 0.026,0.096c0.017,0.019 0.042,0.028 0.073,0.028c0.024,0 0.044,-0.004 0.06,-0.011c0.016,-0.007 0.029,-0.017 0.039,-0.029c0.01,-0.013 0.017,-0.028 0.022,-0.045c0.004,-0.017 0.006,-0.036 0.006,-0.056l0,-0.3l0.114,0l0,0.517Z" style="fill-rule:nonzero;"/></g><g transform="matrix(682.555,0,0,682.555,1881.39,2023.14)"><path d="M0.063,-0.714l0.114,0l0,0.264l0.002,-0c0.008,-0.013 0.018,-0.024 0.029,-0.034c0.011,-0.01 0.024,-0.019 0.038,-0.026c0.013,-0.007 0.028,-0.012 0.042,-0.015c0.016,-0.004 0.03,-0.006 0.045,-0.006c0.041,0 0.076,0.007 0.107,0.021c0.03,0.015 0.055,0.035 0.075,0.059c0.02,0.026 0.035,0.055 0.045,0.088c0.01,0.033 0.015,0.069 0.015,0.107c0,0.035 -0.004,0.068 -0.013,0.101c-0.009,0.033 -0.023,0.062 -0.041,0.086c-0.019,0.025 -0.042,0.045 -0.07,0.06c-0.028,0.015 -0.061,0.023 -0.099,0.023c-0.017,-0 -0.035,-0.001 -0.052,-0.004c-0.018,-0.002 -0.035,-0.006 -0.051,-0.013c-0.016,-0.007 -0.03,-0.015 -0.043,-0.026c-0.013,-0.011 -0.024,-0.025 -0.033,-0.042l-0.002,0l0,0.071l-0.108,-0l0,-0.714Zm0.398,0.456c0,-0.023 -0.003,-0.046 -0.009,-0.068c-0.006,-0.022 -0.015,-0.042 -0.027,-0.059c-0.012,-0.017 -0.027,-0.03 -0.045,-0.041c-0.018,-0.01 -0.039,-0.015 -0.062,-0.015c-0.048,-0 -0.084,0.017 -0.108,0.05c-0.025,0.033 -0.037,0.078 -0.037,0.133c0,0.026 0.003,0.05 0.01,0.072c0.006,0.023 0.015,0.042 0.028,0.058c0.013,0.016 0.028,0.029 0.046,0.038c0.017,0.009 0.038,0.014 0.061,0.014c0.026,-0 0.048,-0.005 0.066,-0.016c0.018,-0.011 0.033,-0.025 0.045,-0.042c0.011,-0.017 0.02,-0.036 0.025,-0.058c0.005,-0.021 0.007,-0.043 0.007,-0.066Z" style="fill-rule:nonzero;"/></g><g transform="matrix(682.555,0,0,682.555,2298.43,2023.14)"><rect x="0.063" y="-0.714" width="0.114" height="0.714" style="fill-rule:nonzero;"/></g><g transform="matrix(682.555,0,0,682.555,2462.93,2023.14)"><path d="M0.063,-0.714l0.114,0l0,0.108l-0.114,0l0,-0.108Zm0,0.197l0.114,-0l0,0.517l-0.114,-0l0,-0.517Z" style="fill-rule:nonzero;"/></g><g transform="matrix(682.555,0,0,682.555,2627.43,2023.14)"><path d="M0.146,-0.166c0.003,0.033 0.016,0.057 0.038,0.07c0.022,0.013 0.048,0.02 0.079,0.02c0.011,0 0.023,-0.001 0.036,-0.003c0.014,-0.001 0.027,-0.004 0.039,-0.009c0.012,-0.005 0.022,-0.011 0.029,-0.021c0.008,-0.008 0.012,-0.02 0.011,-0.035c-0.001,-0.015 -0.006,-0.027 -0.016,-0.036c-0.01,-0.009 -0.023,-0.017 -0.039,-0.022c-0.015,-0.006 -0.033,-0.011 -0.053,-0.015c-0.02,-0.004 -0.04,-0.008 -0.061,-0.013c-0.021,-0.005 -0.042,-0.01 -0.062,-0.017c-0.019,-0.007 -0.037,-0.016 -0.053,-0.027c-0.015,-0.011 -0.028,-0.026 -0.037,-0.043c-0.009,-0.018 -0.014,-0.04 -0.014,-0.066c-0,-0.028 0.007,-0.051 0.02,-0.07c0.014,-0.019 0.031,-0.035 0.052,-0.046c0.021,-0.012 0.045,-0.02 0.07,-0.025c0.026,-0.005 0.051,-0.007 0.074,-0.007c0.027,0 0.052,0.003 0.076,0.009c0.025,0.005 0.047,0.014 0.066,0.027c0.02,0.013 0.036,0.029 0.049,0.049c0.013,0.021 0.022,0.045 0.025,0.074l-0.119,0c-0.005,-0.027 -0.018,-0.046 -0.038,-0.055c-0.019,-0.009 -0.042,-0.014 -0.067,-0.014c-0.008,0 -0.018,0.001 -0.029,0.002c-0.011,0.001 -0.021,0.004 -0.031,0.008c-0.009,0.003 -0.017,0.008 -0.024,0.015c-0.007,0.007 -0.01,0.017 -0.01,0.028c-0,0.014 0.005,0.025 0.014,0.034c0.01,0.009 0.023,0.016 0.038,0.021c0.016,0.006 0.034,0.011 0.054,0.015c0.02,0.004 0.041,0.008 0.062,0.013c0.021,0.005 0.041,0.01 0.061,0.017c0.02,0.007 0.038,0.016 0.053,0.027c0.016,0.011 0.029,0.026 0.038,0.043c0.01,0.017 0.015,0.039 0.015,0.064c-0,0.031 -0.007,0.057 -0.021,0.078c-0.014,0.021 -0.032,0.039 -0.055,0.052c-0.022,0.013 -0.047,0.023 -0.074,0.029c-0.027,0.006 -0.054,0.009 -0.081,0.009c-0.033,-0 -0.063,-0.004 -0.091,-0.011c-0.027,-0.007 -0.051,-0.019 -0.072,-0.034c-0.02,-0.015 -0.036,-0.033 -0.048,-0.056c-0.011,-0.022 -0.017,-0.048 -0.018,-0.079l0.114,-0Z" style="fill-rule:nonzero;"/></g><g transform="matrix(682.555,0,0,682.555,2981.67,2023.14)"><path d="M0.06,-0.714l0.114,0l0,0.265l0.002,-0c0.014,-0.023 0.035,-0.043 0.063,-0.059c0.027,-0.015 0.058,-0.023 0.092,-0.023c0.057,0 0.101,0.015 0.134,0.044c0.033,0.029 0.049,0.073 0.049,0.132l0,0.355l-0.114,0l0,-0.325c-0.001,-0.041 -0.01,-0.07 -0.026,-0.088c-0.016,-0.019 -0.041,-0.028 -0.075,-0.028c-0.019,0 -0.037,0.004 -0.052,0.011c-0.015,0.007 -0.028,0.016 -0.039,0.029c-0.011,0.012 -0.019,0.026 -0.025,0.043c-0.006,0.017 -0.009,0.034 -0.009,0.053l0,0.305l-0.114,0l0,-0.714Z" style="fill-rule:nonzero;"/></g><g transform="matrix(682.555,0,0,682.555,3373.46,2023.14)"><path d="M0.415,-0.304c-0.001,-0.018 -0.005,-0.035 -0.012,-0.052c-0.006,-0.017 -0.015,-0.031 -0.026,-0.044c-0.011,-0.012 -0.024,-0.022 -0.039,-0.03c-0.016,-0.007 -0.034,-0.011 -0.053,-0.011c-0.02,-0 -0.038,0.003 -0.055,0.01c-0.016,0.007 -0.03,0.017 -0.042,0.029c-0.011,0.013 -0.021,0.027 -0.028,0.044c-0.007,0.017 -0.01,0.035 -0.011,0.054l0.266,-0Zm-0.266,0.075c-0,0.02 0.003,0.039 0.008,0.058c0.006,0.019 0.015,0.035 0.026,0.049c0.011,0.014 0.026,0.025 0.043,0.033c0.017,0.009 0.038,0.013 0.062,0.013c0.033,-0 0.06,-0.007 0.08,-0.022c0.021,-0.014 0.036,-0.035 0.046,-0.064l0.108,-0c-0.006,0.028 -0.016,0.053 -0.031,0.075c-0.015,0.022 -0.032,0.04 -0.053,0.055c-0.021,0.015 -0.044,0.027 -0.07,0.034c-0.025,0.008 -0.052,0.012 -0.08,0.012c-0.041,-0 -0.077,-0.007 -0.108,-0.02c-0.031,-0.013 -0.058,-0.032 -0.079,-0.056c-0.022,-0.024 -0.038,-0.053 -0.049,-0.086c-0.011,-0.033 -0.017,-0.07 -0.017,-0.11c0,-0.037 0.006,-0.072 0.018,-0.105c0.011,-0.033 0.028,-0.062 0.05,-0.087c0.021,-0.025 0.047,-0.044 0.078,-0.059c0.031,-0.015 0.065,-0.022 0.104,-0.022c0.041,0 0.077,0.008 0.109,0.025c0.033,0.018 0.06,0.04 0.081,0.068c0.021,0.028 0.037,0.06 0.046,0.096c0.01,0.037 0.013,0.074 0.008,0.113l-0.38,-0Z" style="fill-rule:nonzero;"/></g><g transform="matrix(682.555,0,0,682.555,3752.96,2023.14)"><path d="M0.06,-0.517l0.107,0l0,0.1l0.002,0c0.003,-0.014 0.01,-0.028 0.02,-0.041c0.009,-0.013 0.021,-0.026 0.035,-0.036c0.013,-0.011 0.028,-0.02 0.045,-0.027c0.017,-0.007 0.034,-0.01 0.051,-0.01c0.013,0 0.023,0 0.028,0.001c0.005,0.001 0.01,0.001 0.015,0.002l0,0.11c-0.008,-0.001 -0.016,-0.002 -0.024,-0.003c-0.009,-0.002 -0.017,-0.002 -0.025,-0.002c-0.019,0 -0.037,0.004 -0.054,0.012c-0.017,0.007 -0.032,0.019 -0.045,0.034c-0.013,0.015 -0.023,0.033 -0.03,0.055c-0.007,0.022 -0.011,0.047 -0.011,0.076l0,0.246l-0.114,-0l0,-0.517Z" style="fill-rule:nonzero;"/></g></g></g></svg>